<svg width="512" height="338" viewBox="0 0 512 338" fill="none" xmlns="http://www.w3.org/2000/svg">
<path d="M82.5733 337.194H0L112.215 39.826H196.905L309.12 337.194H226.547L207.492 284.092H101.629L82.5733 337.194ZM120.684 228.867H188.436L154.56 129.036L120.684 228.867Z" fill="#339AC9"/>
<path d="M257.494 235.77C334.845 240.018 387.212 242.142 414.595 242.142C421.088 242.142 426.169 240.301 429.839 236.62C433.791 232.655 435.767 227.415 435.767 220.902V182.669H338.373C308.732 182.669 287.136 176.013 273.585 162.703C260.317 149.109 253.683 127.443 253.683 97.7065V84.9622C253.683 55.2254 260.317 33.7017 273.585 20.3909C287.136 6.79698 308.732 0 338.373 0H487.005V59.4735H355.311C338.373 59.4735 329.904 67.9698 329.904 84.9622V93.4584C329.904 110.451 338.373 118.947 355.311 118.947H431.533C459.198 118.947 479.524 125.461 492.51 138.488C505.496 151.516 511.989 171.907 511.989 199.661V220.902C511.989 248.656 505.496 269.047 492.51 282.074C479.524 295.102 459.198 301.616 431.533 301.616C417.136 301.616 401.891 301.333 385.8 300.766L346.842 299.067C318.048 297.651 288.265 295.668 257.494 293.12V235.77Z" fill="#339AC9"/>
</svg>
